<svg xmlns="http://www.w3.org/2000/svg" width="140" height="26" viewBox="0 0 140 26">
    <g fill="none" fill-rule="nonzero">
        <path fill="#4C2887" d="M0 12.59c0 7.198 5.665 12.59 13.167 12.59 2.675 0 4.983-.576 6.977-1.99v-4.71c-1.967 1.256-4.564 2.067-7.03 2.067-4.747 0-8.314-3.324-8.314-7.957s3.54-7.957 8.315-7.957c2.465 0 5.062.811 7.029 2.068V1.989C18.15.576 15.842 0 13.167 0 5.665 0 0 5.392 0 12.59M111.295 6.043c-5.287 0-9.568 4.29-9.568 9.555s4.28 9.582 9.568 9.582c5.287 0 9.568-4.29 9.568-9.582 0-5.264-4.28-9.555-9.568-9.555m0 15.215c-3.07 0-5.493-2.527-5.493-5.66 0-3.132 2.424-5.66 5.493-5.66 3.07 0 5.493 2.528 5.493 5.66 0 3.133-2.424 5.66-5.493 5.66M135.855 6.043l-7.954 11.75V6.042h-4.016v18.13h4.068l7.98-11.698v11.698H140V6.043zM37.798 14.64c1.022-.597 1.992-1.974 1.992-3.506 0-2.935-2.254-5.09-5.32-5.09H24.174v18.129H34.89c3.066 0 5.398-2.182 5.398-5.195-.026-2.026-1.258-3.662-2.49-4.338zm-9.511-5.012h5.529c1.048 0 1.834.753 1.834 1.74 0 1.013-.786 1.74-1.834 1.74h-5.53v-3.48zm5.79 10.986h-5.79v-3.922h5.79c1.206 0 2.07.857 2.07 1.974 0 1.091-.864 1.948-2.07 1.948zM50.011 6.043c-3.555 0-6.216 2.701-6.216 6.234 0 2.857 1.79 5.195 4.4 5.948l-4.886 5.948h5.193l4.681-5.689h2.225v5.689h4.016V6.043h-9.413zm.563 3.585h4.86v5.324h-4.86c-1.612 0-2.737-1.22-2.737-2.65 0-1.506 1.125-2.674 2.737-2.674zM86.658 6.043H82.59v18.13h4.068v-7.366h7.98v7.366h4.067V6.043h-4.068v7.21h-7.98zM63.453 23.732v-4.08c1.556.842 3.494 1.606 5.66 1.606 2.653 0 4.336-.816 4.336-2.29 0-1.29-1.48-1.79-3.34-1.79h-3.06V13.57h3.06c1.912 0 2.957-.71 2.957-1.71 0-1.448-1.683-1.896-3.62-1.896-2.244 0-4.08.685-5.56 1.422V7.438c1.556-.79 3.596-1.395 6.146-1.395 3.876 0 7.037 2.132 7.037 5.08 0 2.133-1.223 3.475-2.192 3.896 1.249.606 2.677 2.132 2.677 4.344 0 3.448-3.213 5.817-7.905 5.817-2.677 0-4.64-.606-6.196-1.448"/>
        <path fill="#FF0098" d="M131.439 5.036c3.006 0 5.291-1.88 5.54-4.635L133.848 0c0 1.178-1.069 2.105-2.41 2.105-1.342 0-2.41-.902-2.41-2.105l-3.13.4c.249 2.782 2.534 4.636 5.54 4.636"/>
    </g>
</svg>
